<?xml version="1.0" encoding="utf-8" standalone="no"?>
<!DOCTYPE svg PUBLIC "-//W3C//DTD SVG 1.1//EN"
  "http://www.w3.org/Graphics/SVG/1.1/DTD/svg11.dtd">
<svg xmlns:xlink="http://www.w3.org/1999/xlink" width="180pt" height="180pt" viewBox="0 0 180 180" xmlns="http://www.w3.org/2000/svg" version="1.1">
 <metadata>
  <rdf:RDF xmlns:dc="http://purl.org/dc/elements/1.1/" xmlns:cc="http://creativecommons.org/ns#" xmlns:rdf="http://www.w3.org/1999/02/22-rdf-syntax-ns#">
   <cc:Work>
    <dc:type rdf:resource="http://purl.org/dc/dcmitype/StillImage"/>
    <dc:date>2025-11-02T04:00:07.632798</dc:date>
    <dc:format>image/svg+xml</dc:format>
    <dc:creator>
     <cc:Agent>
      <dc:title>Matplotlib v3.6.3, https://matplotlib.org/</dc:title>
     </cc:Agent>
    </dc:creator>
   </cc:Work>
  </rdf:RDF>
 </metadata>
 <defs>
  <style type="text/css">*{stroke-linejoin: round; stroke-linecap: butt}</style>
 </defs>
 <g id="figure_1">
  <g id="patch_1">
   <path d="M 0 180 
L 180 180 
L 180 0 
L 0 0 
L 0 180 
z
" style="fill: none; opacity: 0"/>
  </g>
  <g id="axes_1">
   <g id="patch_2">
    <path d="M 36 70.2 
C 42.205753 70.2 48.158169 68.493066 52.546299 65.45513 
C 56.934428 62.417194 59.4 58.29629 59.4 54 
C 59.4 49.70371 56.934428 45.582806 52.546299 42.54487 
C 48.158169 39.506934 42.205753 37.8 36 37.8 
C 29.794247 37.8 23.841831 39.506934 19.453701 42.54487 
C 15.065572 45.582806 12.6 49.70371 12.6 54 
C 12.6 58.29629 15.065572 62.417194 19.453701 65.45513 
C 23.841831 68.493066 29.794247 70.2 36 70.2 
z
" clip-path="url(#p253e1f0eba)" style="fill: #cfd4d8; stroke: #222222; stroke-width: 3; stroke-linejoin: miter"/>
   </g>
   <g id="patch_3">
    <path d="M 133.2 73.8 
C 144.179408 73.8 154.710607 71.713747 162.474221 68.000714 
C 170.237835 64.287681 174.6 59.251021 174.6 54 
C 174.6 48.748979 170.237835 43.712319 162.474221 39.999286 
C 154.710607 36.286253 144.179408 34.2 133.2 34.2 
C 122.220592 34.2 111.689393 36.286253 103.925779 39.999286 
C 96.162165 43.712319 91.8 48.748979 91.8 54 
C 91.8 59.251021 96.162165 64.287681 103.925779 68.000714 
C 111.689393 71.713747 122.220592 73.8 133.2 73.8 
z
" clip-path="url(#p253e1f0eba)" style="fill: #f0ad4e; stroke: #222222; stroke-width: 3; stroke-linejoin: miter"/>
   </g>
   <g id="patch_4">
    <path d="M 36 142.2 
C 41.728387 142.2 47.222925 140.493066 51.273506 137.45513 
C 55.324088 134.417194 57.6 130.29629 57.6 126 
C 57.6 121.70371 55.324088 117.582806 51.273506 114.54487 
C 47.222925 111.506934 41.728387 109.8 36 109.8 
C 30.271613 109.8 24.777075 111.506934 20.726494 114.54487 
C 16.675912 117.582806 14.4 121.70371 14.4 126 
C 14.4 130.29629 16.675912 134.417194 20.726494 137.45513 
C 24.777075 140.493066 30.271613 142.2 36 142.2 
z
" clip-path="url(#p253e1f0eba)" style="fill: #cfd4d8; stroke: #222222; stroke-width: 3; stroke-linejoin: miter"/>
   </g>
   <g id="patch_5">
    <path d="M 135 147.6 
C 145.26336 147.6 155.107741 145.324088 162.365032 141.273506 
C 169.622324 137.222925 173.7 131.728387 173.7 126 
C 173.7 120.271613 169.622324 114.777075 162.365032 110.726494 
C 155.107741 106.675912 145.26336 104.4 135 104.4 
C 124.73664 104.4 114.892259 106.675912 107.634968 110.726494 
C 100.377676 114.777075 96.3 120.271613 96.3 126 
C 96.3 131.728387 100.377676 137.222925 107.634968 141.273506 
C 114.892259 145.324088 124.73664 147.6 135 147.6 
z
" clip-path="url(#p253e1f0eba)" style="fill: #d9534f; stroke: #222222; stroke-width: 3; stroke-linejoin: miter"/>
   </g>
   <g id="line2d_1">
    <path d="M 63 54 
L 88.2 54 
" clip-path="url(#p253e1f0eba)" style="fill: none; stroke: #111111; stroke-width: 3; stroke-linecap: round"/>
   </g>
   <g id="line2d_2">
    <path d="M 61.2 126 
L 92.7 126 
" clip-path="url(#p253e1f0eba)" style="fill: none; stroke: #111111; stroke-width: 3; stroke-linecap: round"/>
   </g>
  </g>
 </g>
 <defs>
  <clipPath id="p253e1f0eba">
   <rect x="0" y="0" width="180" height="180"/>
  </clipPath>
 </defs>
</svg>
